<svg width="60" height="60" viewBox="0 0 60 60" fill="none" xmlns="http://www.w3.org/2000/svg">
<path d="M36.4969 30.8108C36.4969 34.3932 33.4569 37.2973 29.7068 37.2973C25.9567 37.2973 22.9167 34.3932 22.9167 30.8108C22.9167 27.2284 25.9567 24.3243 29.7068 24.3243C33.4569 24.3243 36.4969 27.2284 36.4969 30.8108Z" fill="white"/>
<path fill-rule="evenodd" clip-rule="evenodd" d="M29.7068 18.6487C27.4674 18.6487 25.3654 19.2003 23.539 20.1684C23.1291 20.3857 22.6124 20.2444 22.385 19.8529C22.1575 19.4613 22.3054 18.9678 22.7153 18.7505C24.7873 17.6522 27.1719 17.027 29.7068 17.027C37.6757 17.027 44.1358 23.1982 44.1358 30.8108C44.1358 38.4234 37.6757 44.5946 29.7068 44.5946C21.7379 44.5946 15.2778 38.4234 15.2778 30.8108C15.2778 28.4494 15.9001 26.2245 16.9973 24.2798C17.2197 23.8857 17.7345 23.7383 18.1471 23.9508C18.5597 24.1633 18.714 24.655 18.4916 25.0492C17.5245 26.7633 16.9753 28.7246 16.9753 30.8108C16.9753 37.5278 22.6754 42.973 29.7068 42.973C36.7382 42.973 42.4383 37.5278 42.4383 30.8108C42.4383 24.0938 36.7382 18.6487 29.7068 18.6487Z" fill="white"/>
<path d="M22.9167 21.8919C22.9167 23.2353 21.7766 24.3243 20.3704 24.3243C18.9641 24.3243 17.8241 23.2353 17.8241 21.8919C17.8241 20.5485 18.9641 19.4595 20.3704 19.4595C21.7766 19.4595 22.9167 20.5485 22.9167 21.8919Z" fill="white"/>
<path fill-rule="evenodd" clip-rule="evenodd" d="M46.87 39.6962C48.5057 36.8129 49.2632 33.7024 49.2312 30.6425C49.2265 30.1947 49.6027 29.8281 50.0715 29.8236C50.5402 29.8191 50.924 30.1785 50.9287 30.6263C50.9634 33.9545 50.1389 37.3374 48.3624 40.4688C42.7788 50.3114 29.8998 53.9663 19.5966 48.6323C9.29327 43.2983 5.46726 30.9953 11.0509 21.1528C16.6346 11.3102 29.5135 7.65531 39.8168 12.9893C43.0135 14.6442 45.5884 16.9716 47.4512 19.6888C47.7081 20.0635 47.5984 20.566 47.2062 20.8114C46.8141 21.0567 46.288 20.9519 46.0312 20.5773C44.3185 18.0791 41.9514 15.9388 39.008 14.415C29.529 9.50775 17.6804 12.8703 12.5434 21.9254C7.40641 30.9806 10.9263 42.2993 20.4054 47.2066C29.8844 52.1139 41.733 48.7513 46.87 39.6962Z" fill="white"/>
<path d="M47.2453 28.8239C45.1847 27.7572 44.4195 25.2965 45.5362 23.328C46.653 21.3595 49.2287 20.6285 51.2894 21.6953C53.3501 22.7621 54.1153 25.2227 52.9985 27.1912C51.8818 29.1598 49.306 29.8907 47.2453 28.8239Z" fill="white"/>
<path fill-rule="evenodd" clip-rule="evenodd" d="M25.4498 3.52899C25.532 3.96985 25.2245 4.39088 24.763 4.46937C11.6519 6.69943 1.69753 17.6454 1.69753 30.8108C1.69753 45.5881 14.2377 57.5676 29.7068 57.5676C45.1759 57.5676 57.716 45.5881 57.716 30.8108C57.716 17.6454 47.7617 6.69943 34.6506 4.46937C34.1891 4.39088 33.8816 3.96985 33.9638 3.52899C34.0459 3.08812 34.4867 2.79436 34.9482 2.87286C48.8551 5.23827 59.4136 16.8458 59.4136 30.8108C59.4136 46.4837 46.1134 59.1892 29.7068 59.1892C13.3002 59.1892 0 46.4837 0 30.8108C0 16.8458 10.5585 5.23827 24.4654 2.87286C24.9269 2.79436 25.3676 3.08812 25.4498 3.52899Z" fill="white"/>
<path d="M33.1018 3.24324C33.1018 5.03444 31.5818 6.48649 29.7068 6.48649C27.8317 6.48649 26.3117 5.03444 26.3117 3.24324C26.3117 1.45205 27.8317 0 29.7068 0C31.5818 0 33.1018 1.45205 33.1018 3.24324Z" fill="white"/>
</svg>
